<svg width="588" height="588" viewBox="0 0 588 588" fill="none" xmlns="http://www.w3.org/2000/svg">
<path d="M77.2714 261.32C77.2714 261.32 77.3335 261.362 77.4369 261.362C75.7607 262.065 74.7674 262.479 74.457 262.603L77.2714 261.32Z" fill="url(#paint0_linear_948_82)"/>
<path d="M486.392 293.843C486.392 400.184 400.185 486.391 293.844 486.391C187.503 486.391 101.296 400.184 101.296 293.843C101.296 187.502 187.503 101.295 293.844 101.295C400.185 101.295 486.392 187.502 486.392 293.843Z" stroke="white" stroke-width="70.1566"/>
<mask id="mask0_948_82" style="mask-type:luminance" maskUnits="userSpaceOnUse" x="86" y="86" width="416" height="416">
<path d="M441 441.002C522.186 359.816 522.186 228.188 441 147.002C359.814 65.8161 228.186 65.8161 147 147.002C65.8141 228.188 65.8141 359.816 147 441.002C228.186 522.188 359.814 522.188 441 441.002Z" fill="white"/>
</mask>
<g mask="url(#mask0_948_82)">
<path d="M441.312 441.314C522.67 359.956 522.67 228.048 441.312 146.69C359.954 65.3316 228.046 65.3316 146.688 146.69C65.3296 228.048 65.3296 359.956 146.688 441.314C228.046 522.672 359.954 522.672 441.312 441.314Z" fill="url(#paint1_linear_948_82)" stroke="black" stroke-width="0.882883"/>
<path style="mix-blend-mode:multiply" d="M469.938 124.686L309.127 135.322L489.556 138.261" fill="url(#paint2_linear_948_82)"/>
<path style="mix-blend-mode:multiply" d="M118.229 109.004L279.04 119.64L98.6113 122.579" fill="url(#paint3_linear_948_82)"/>
<path style="mix-blend-mode:multiply" d="M37.812 166.531L198.623 177.168L18.1943 180.106" fill="url(#paint4_linear_948_82)"/>
<path style="mix-blend-mode:multiply" d="M590.127 264.061L369.263 272.11L609.041 273.952" fill="url(#paint5_linear_948_82)"/>
<path style="mix-blend-mode:multiply" d="M35.7811 217.645L256.645 225.694L16.8877 227.536" fill="url(#paint6_linear_948_82)"/>
<path style="mix-blend-mode:multiply" d="M619.551 171.891L398.687 179.92L638.444 181.782" fill="url(#paint7_linear_948_82)"/>
<path d="M417.003 391.101C417.003 391.101 129.981 527.659 119.572 529.997C109.142 532.315 -115.385 365.648 -115.385 365.648C-115.385 365.648 24.8153 274.554 90.0213 263.669C92.6288 263.213 95.1327 262.903 97.4504 262.758C99.5405 262.593 101.506 262.551 103.348 262.613C137.948 264.041 246.507 309.774 326.282 346.278C330.69 348.285 335.035 350.272 339.236 352.259C383.79 372.932 416.589 389.425 417.003 391.08V391.101Z" fill="url(#paint8_linear_948_82)"/>
<path d="M339.237 352.278C327.317 368.461 318.357 380.753 317.922 381.663C316.536 384.519 93.5193 370.592 131.389 360.576C169.279 350.581 170.314 325.914 148.896 318.796C127.457 311.615 139.625 302.323 134.617 285.913C131.658 276.332 112.847 268.055 97.4512 262.778C99.5412 262.612 101.507 262.571 103.349 262.633C137.949 264.061 246.508 309.794 326.283 346.298C330.69 348.305 335.036 350.292 339.237 352.278Z" fill="url(#paint9_linear_948_82)"/>
<path d="M561.383 333.241C561.383 333.241 557.43 355.052 552.526 381.664C544.993 422.741 535.122 475.221 533.943 476.421C531.956 478.366 295.302 565.984 288.784 562.072C282.224 558.141 114.232 479.028 113.57 475.097C112.908 471.165 90.6826 362.668 90.6826 362.668C90.6826 362.668 155.413 339.78 216.211 337.173C277.03 334.524 300.579 310.354 337.187 291.398C339.753 290.074 343.022 289.143 346.954 288.522C399.082 280.638 561.424 333.262 561.424 333.262L561.383 333.241Z" fill="url(#paint10_linear_948_82)"/>
<path d="M561.384 333.24C561.384 333.24 557.431 355.051 552.527 381.664C523.08 375.869 495.805 385.492 472.96 383.857C439.767 381.436 438.96 361.342 409.223 345.822C379.486 330.302 337.478 356.666 331.042 333.344C323.427 305.738 394.22 309.649 394.489 298.682C394.634 293.467 386.708 299.758 371.188 296.012C358.834 293.032 350.391 290.032 346.914 288.5C399.042 280.616 561.384 333.24 561.384 333.24Z" fill="url(#paint11_linear_948_82)"/>
<g style="mix-blend-mode:screen">
<path d="M227.553 290.347C281.966 290.347 326.076 246.236 326.076 191.824C326.076 137.411 281.966 93.3008 227.553 93.3008C173.14 93.3008 129.03 137.411 129.03 191.824C129.03 246.236 173.14 290.347 227.553 290.347Z" fill="#6B4535"/>
</g>
<g style="mix-blend-mode:screen">
<path d="M304.811 204.38C311.735 161.726 282.77 121.535 240.116 114.611C197.462 107.687 157.271 136.653 150.347 179.307C143.423 221.961 172.389 262.152 215.043 269.076C257.697 275.999 297.888 247.034 304.811 204.38Z" fill="#6B4535"/>
</g>
<path style="mix-blend-mode:screen" d="M227.55 251.606C260.568 251.606 287.334 224.839 287.334 191.821C287.334 158.803 260.568 132.037 227.55 132.037C194.532 132.037 167.766 158.803 167.766 191.821C167.766 224.839 194.532 251.606 227.55 251.606Z" fill="url(#paint12_linear_948_82)"/>
<path d="M406.962 416.841H390.49L392.891 257.334H404.583L406.962 416.841Z" fill="url(#paint13_linear_948_82)"/>
<path d="M479.826 259.693C478.522 258.368 477.032 256.796 475.149 255.533C471.466 252.905 467.037 249.594 461.677 247.442C456.401 245.104 450.399 243.655 444.398 242.62C438.356 241.896 432.272 241.586 426.643 242.186C422.442 242.496 418.51 243.448 414.992 244.359C418.179 243.034 421.697 241.751 425.236 240.282C430.43 238.316 435.831 236.102 441.398 234.446C446.881 232.501 452.49 231.115 457.828 229.728C463.167 228.528 468.258 226.997 472.79 226.438C477.281 225.9 481.212 224.762 483.965 224.534C486.8 224.017 488.414 223.706 488.414 223.706C488.414 223.706 486.945 222.941 484.358 221.596C481.709 220.623 477.86 218.719 472.976 217.912C468.113 217.126 462.257 216.091 455.987 216.505C449.696 216.712 443.095 218.119 436.679 220.043C430.368 222.278 424.263 225.051 419.069 228.487C414.289 231.487 410.419 235.171 407.067 238.316C408.867 235.626 411.247 232.811 413.254 229.687C415.882 226.127 418.262 222.154 421.097 218.533C421.739 217.581 422.359 216.608 422.98 215.656C423.663 214.746 424.346 213.835 425.008 212.925C425.691 212.014 426.291 211.062 426.974 210.193C427.657 209.324 428.319 208.434 428.94 207.544C429.623 206.696 430.182 205.744 430.823 204.916C431.465 204.089 432.065 203.24 432.644 202.392C433.224 201.543 433.803 200.715 434.362 199.908C434.962 199.143 435.583 198.439 436.183 197.777C437.383 196.453 438.335 194.983 439.245 193.721C440.177 192.5 441.004 191.383 441.749 190.555C443.095 188.61 443.86 187.492 443.86 187.492C443.86 187.492 442.515 187.699 440.177 188.03C439.08 188.361 437.652 188.63 436.017 189.024C434.424 189.458 432.706 190.141 430.927 191.052C430.037 191.507 429.085 191.962 428.112 192.459C427.181 192.997 426.208 193.555 425.215 194.135C424.222 194.714 423.187 195.335 422.173 196.018C421.138 196.68 420.228 197.508 419.276 198.315C418.303 199.122 417.331 199.95 416.379 200.819C415.406 201.688 414.579 202.681 413.689 203.654C412.82 204.647 411.95 205.641 411.061 206.655C410.254 207.71 409.446 208.786 408.639 209.841C405.639 214.27 403.114 218.967 401.355 223.623C400.031 227.1 399.286 230.577 398.706 233.722C398.127 230.577 397.382 227.1 396.058 223.623C394.299 218.967 391.774 214.27 388.773 209.841C387.966 208.786 387.159 207.71 386.352 206.655C385.462 205.661 384.593 204.647 383.724 203.654C382.834 202.681 381.986 201.688 381.034 200.819C380.082 199.95 379.109 199.101 378.137 198.315C377.185 197.508 376.274 196.68 375.24 196.018C374.205 195.356 373.191 194.735 372.198 194.135C371.204 193.555 370.232 192.997 369.301 192.459C368.328 191.983 367.397 191.507 366.486 191.052C364.707 190.141 362.989 189.458 361.396 189.024C359.761 188.63 358.333 188.361 357.236 188.03C354.898 187.678 353.553 187.492 353.553 187.492C353.553 187.492 354.318 188.61 355.663 190.555C356.408 191.383 357.215 192.5 358.167 193.721C359.078 194.983 360.009 196.473 361.23 197.777C361.83 198.439 362.451 199.143 363.051 199.908C363.61 200.715 364.169 201.543 364.769 202.392C365.348 203.24 365.969 204.089 366.59 204.916C367.231 205.744 367.79 206.696 368.473 207.544C369.094 208.434 369.756 209.324 370.439 210.193C371.122 211.062 371.722 212.035 372.405 212.925C373.088 213.835 373.75 214.746 374.433 215.656C375.053 216.608 375.695 217.581 376.316 218.533C379.151 222.175 381.531 226.127 384.159 229.687C386.166 232.811 388.546 235.626 390.346 238.316C387.014 235.15 383.145 231.466 378.344 228.487C373.129 225.072 367.024 222.278 360.733 220.043C354.318 218.119 347.717 216.732 341.426 216.505C335.156 216.091 329.3 217.126 324.437 217.912C319.553 218.719 315.704 220.623 313.055 221.596C310.468 222.941 308.999 223.706 308.999 223.706C308.999 223.706 310.613 224.017 313.448 224.534C316.221 224.782 320.153 225.9 324.623 226.438C329.134 226.997 334.245 228.528 339.584 229.728C344.903 231.115 350.531 232.501 356.015 234.446C361.582 236.102 366.983 238.316 372.177 240.282C375.716 241.751 379.234 243.034 382.42 244.359C378.903 243.448 374.971 242.517 370.77 242.186C365.141 241.586 359.057 241.896 353.015 242.62C347.013 243.655 341.033 245.104 335.735 247.442C330.376 249.594 325.947 252.884 322.264 255.533C320.381 256.796 318.891 258.368 317.587 259.693C316.345 261.121 315.311 262.383 314.421 263.335C312.91 265.57 312.041 266.832 312.041 266.832C312.041 266.832 313.51 266.46 316.076 265.777C317.256 265.342 318.829 265.011 320.505 264.576C322.264 264.225 324.105 263.707 326.113 263.128C330.045 261.866 334.866 261.224 339.75 260.189C344.696 259.3 349.89 258.244 355.208 257.623C360.464 256.692 365.824 256.175 370.915 255.492C371.784 255.388 372.653 255.285 373.522 255.161C373.46 255.181 373.419 255.202 373.357 255.244C371.473 256.092 369.735 257.272 367.955 258.368C366.279 259.631 364.769 261.079 363.237 262.445C361.809 263.914 360.526 265.466 359.388 267.039C358.271 268.612 357.422 270.329 356.657 271.923C355.87 273.516 355.456 275.192 354.856 276.558C353.635 279.31 353.863 282.228 353.553 283.925C353.573 285.788 353.594 286.843 353.594 286.843C353.594 286.843 354.525 286.305 356.139 285.374C357.484 284.318 359.761 283.077 361.872 281.421C362.927 280.593 364.003 279.641 365.327 278.876C366.631 278.089 367.914 277.2 369.094 276.227C370.439 275.399 371.66 274.427 372.901 273.433C374.226 272.564 375.447 271.53 376.812 270.702C378.095 269.771 379.316 268.736 380.661 267.908C381.324 267.474 381.944 267.018 382.586 266.542C383.248 266.128 383.869 265.694 384.49 265.218C385.731 264.307 386.994 263.5 388.153 262.507C389.353 261.679 390.512 260.727 391.671 260.148C392.643 259.589 393.533 258.948 394.381 258.327H403.052C403.88 258.948 404.79 259.569 405.763 260.148C406.922 260.727 408.06 261.679 409.281 262.507C410.44 263.5 411.702 264.307 412.944 265.218C413.565 265.673 414.206 266.128 414.848 266.542C415.468 266.998 416.11 267.474 416.772 267.908C418.117 268.736 419.338 269.771 420.621 270.702C421.987 271.53 423.187 272.564 424.512 273.433C425.753 274.406 426.974 275.399 428.319 276.227C429.499 277.2 430.782 278.089 432.085 278.876C433.41 279.662 434.507 280.593 435.541 281.421C437.652 283.077 439.928 284.298 441.273 285.374C442.908 286.305 443.819 286.843 443.819 286.843C443.819 286.843 443.819 285.788 443.86 283.925C443.55 282.228 443.777 279.31 442.556 276.558C441.956 275.192 441.543 273.516 440.756 271.923C439.99 270.329 439.163 268.612 438.025 267.039C436.886 265.487 435.603 263.914 434.175 262.445C432.644 261.079 431.134 259.631 429.457 258.368C427.657 257.272 425.939 256.092 424.056 255.244C423.994 255.223 423.953 255.202 423.891 255.161C424.76 255.285 425.608 255.388 426.498 255.492C431.589 256.175 436.928 256.671 442.205 257.623C447.523 258.244 452.717 259.3 457.663 260.189C462.547 261.245 467.348 261.866 471.3 263.128C473.287 263.687 475.149 264.225 476.908 264.576C478.605 265.032 480.157 265.342 481.337 265.777C483.903 266.439 485.372 266.832 485.372 266.832C485.372 266.832 484.503 265.549 482.992 263.335C482.102 262.362 481.068 261.121 479.826 259.693Z" fill="url(#paint14_linear_948_82)"/>
<path d="M92.0925 370.654C95.4449 370.902 97.5763 373.075 100.411 374.316C104.053 375.889 108.275 376.634 112.145 377.421C120.215 379.055 128.451 379.8 136.667 380.007C162.803 380.669 188.587 374.896 214.724 375.889C235.335 376.676 255.283 384.539 275.067 389.547C296.733 395.052 318.917 398.735 341.328 398.797C384.164 398.942 426.234 388.099 468.76 398.383C491.544 403.888 512.196 424.395 502.739 448.98C492.31 473.295 461.062 462.865 437.264 470.315C433.457 471.743 429.794 473.75 426.317 476.606C421.64 478.696 417.295 481.22 413.529 484.324C409.141 487.118 404.713 489.767 400.243 492.312C395.773 494.816 391.241 497.196 386.668 499.472C312.978 535.914 226.643 539.287 145.482 526.209C122.926 522.567 98.3213 516.317 85.3877 497.486C78.0001 486.746 75.5996 473.481 73.3647 460.651C72.7232 456.967 72.0816 453.284 71.4401 449.621C65.1492 424.644 47.7872 382.966 82.4285 372.413C85.8016 371.13 89.0505 370.426 92.0718 370.654H92.0925Z" fill="url(#paint15_linear_948_82)"/>
<path d="M117.438 431.223C130.454 427.126 148.003 429.113 161.33 429.113C186.431 429.113 210.746 422.18 235.103 417.152C260.929 411.813 287.623 411.916 313.718 415.062C365.846 421.373 417.518 436.976 465.61 457.753C479.786 463.878 533.548 485.441 513.475 509.197C501.39 523.476 476.64 528.443 459.547 532.623C429.707 539.928 399.08 544.149 368.577 547.626C336.171 551.33 303.661 553.937 271.11 555.883C232.93 558.18 195.578 565.898 161.847 541.976C150.051 533.616 139.353 522.586 129.751 511.805C115.99 496.347 98.5033 477.702 99.538 455.125C100.179 441.115 107.484 434.348 117.479 431.203L117.438 431.223Z" fill="url(#paint16_linear_948_82)"/>
<path d="M119.966 442.152C121.539 439.793 124.498 437.91 129.361 436.896C134.265 435.882 139.335 436.565 144.302 437.165C158.684 438.903 173.149 439.938 187.635 440.269C201.21 440.579 215.757 438.344 229.105 439.979C255.241 443.166 279.267 457.445 302.485 468.806C319.061 476.917 335.533 485.216 351.881 493.741C365.787 500.984 386.232 507.627 395.607 520.354C406.471 535.108 425.675 569.046 406.305 584.463C393.061 594.996 369.967 592.285 354.509 590.733C304.12 585.663 253.875 570.019 206.487 552.719C203.527 551.643 170.852 541.461 171.452 537.24C172.031 533.122 166.775 526.293 164.934 522.961C159.595 513.276 153.821 503.819 148.027 494.383C142.046 484.636 136.5 473.213 128.45 465.267C122.015 458.914 115.703 448.67 119.987 442.173L119.966 442.152Z" fill="url(#paint17_linear_948_82)"/>
</g>
<defs>
<linearGradient id="paint0_linear_948_82" x1="75.947" y1="262.355" x2="75.947" y2="261.362" gradientUnits="userSpaceOnUse">
<stop stop-color="#FFD67F"/>
<stop offset="0.57" stop-color="#FFBF0B"/>
<stop offset="1" stop-color="#FF9A0B"/>
</linearGradient>
<linearGradient id="paint1_linear_948_82" x1="294.005" y1="327.502" x2="294.005" y2="133.643" gradientUnits="userSpaceOnUse">
<stop stop-color="#FFD67F"/>
<stop offset="0.57" stop-color="#FFBF0B"/>
<stop offset="1" stop-color="#FF9A0B"/>
</linearGradient>
<linearGradient id="paint2_linear_948_82" x1="309.127" y1="131.473" x2="489.556" y2="131.473" gradientUnits="userSpaceOnUse">
<stop stop-color="#FFD67F"/>
<stop offset="0.57" stop-color="#FFBF0B"/>
<stop offset="1" stop-color="#FF9A0B"/>
</linearGradient>
<linearGradient id="paint3_linear_948_82" x1="279.061" y1="115.791" x2="98.6113" y2="115.791" gradientUnits="userSpaceOnUse">
<stop stop-color="#FFD67F"/>
<stop offset="0.57" stop-color="#FFBF0B"/>
<stop offset="1" stop-color="#FF9A0B"/>
</linearGradient>
<linearGradient id="paint4_linear_948_82" x1="198.644" y1="173.319" x2="18.1943" y2="173.319" gradientUnits="userSpaceOnUse">
<stop stop-color="#FFD67F"/>
<stop offset="0.57" stop-color="#FFBF0B"/>
<stop offset="1" stop-color="#FF9A0B"/>
</linearGradient>
<linearGradient id="paint5_linear_948_82" x1="369.263" y1="269.006" x2="609.041" y2="269.006" gradientUnits="userSpaceOnUse">
<stop stop-color="#FFD67F"/>
<stop offset="0.57" stop-color="#FFBF0B"/>
<stop offset="1" stop-color="#FF9A0B"/>
</linearGradient>
<linearGradient id="paint6_linear_948_82" x1="256.666" y1="222.59" x2="16.8877" y2="222.59" gradientUnits="userSpaceOnUse">
<stop stop-color="#FFD67F"/>
<stop offset="0.57" stop-color="#FFBF0B"/>
<stop offset="1" stop-color="#FF9A0B"/>
</linearGradient>
<linearGradient id="paint7_linear_948_82" x1="398.687" y1="176.836" x2="638.444" y2="176.836" gradientUnits="userSpaceOnUse">
<stop stop-color="#FFD67F"/>
<stop offset="0.57" stop-color="#FFBF0B"/>
<stop offset="1" stop-color="#FF9A0B"/>
</linearGradient>
<linearGradient id="paint8_linear_948_82" x1="232.477" y1="287.26" x2="131.305" y2="400.123" gradientUnits="userSpaceOnUse">
<stop stop-color="#FF9508"/>
<stop offset="0.43" stop-color="#C25808"/>
<stop offset="1" stop-color="#4C1E0A"/>
</linearGradient>
<linearGradient id="paint9_linear_948_82" x1="219.13" y1="288.79" x2="215.695" y2="371.379" gradientUnits="userSpaceOnUse">
<stop stop-color="#FF9508"/>
<stop offset="0.43" stop-color="#C25808"/>
<stop offset="1" stop-color="#4C1E0A"/>
</linearGradient>
<linearGradient id="paint10_linear_948_82" x1="327.129" y1="313.665" x2="322.991" y2="442.338" gradientUnits="userSpaceOnUse">
<stop stop-color="#FF9508"/>
<stop offset="0.43" stop-color="#C25808"/>
<stop offset="1" stop-color="#4C1E0A"/>
</linearGradient>
<linearGradient id="paint11_linear_948_82" x1="371.333" y1="214.251" x2="522.045" y2="455.106" gradientUnits="userSpaceOnUse">
<stop stop-color="#FF9508"/>
<stop offset="0.43" stop-color="#C25808"/>
<stop offset="1" stop-color="#4C1E0A"/>
</linearGradient>
<linearGradient id="paint12_linear_948_82" x1="227.55" y1="138.142" x2="227.55" y2="230.457" gradientUnits="userSpaceOnUse">
<stop stop-color="white"/>
<stop offset="0.26" stop-color="#F6EEE0"/>
<stop offset="0.55" stop-color="#ECDABA"/>
<stop offset="0.68" stop-color="#EFCF9B"/>
<stop offset="0.97" stop-color="#F7B44F"/>
<stop offset="1" stop-color="#F8B248"/>
</linearGradient>
<linearGradient id="paint13_linear_948_82" x1="398.726" y1="420.877" x2="398.726" y2="286.326" gradientUnits="userSpaceOnUse">
<stop stop-color="#A64D0D"/>
<stop offset="0.49" stop-color="#88390A"/>
<stop offset="1" stop-color="#4C1E0A"/>
</linearGradient>
<linearGradient id="paint14_linear_948_82" x1="398.727" y1="420.876" x2="398.727" y2="286.326" gradientUnits="userSpaceOnUse">
<stop stop-color="#A64D0D"/>
<stop offset="0.49" stop-color="#88390A"/>
<stop offset="1" stop-color="#4C1E0A"/>
</linearGradient>
<linearGradient id="paint15_linear_948_82" x1="284.027" y1="391.554" x2="281.958" y2="472.074" gradientUnits="userSpaceOnUse">
<stop stop-color="#FF9508"/>
<stop offset="0.43" stop-color="#C25808"/>
<stop offset="1" stop-color="#4C1E0A"/>
</linearGradient>
<linearGradient id="paint16_linear_948_82" x1="315.457" y1="407.922" x2="303.351" y2="531.65" gradientUnits="userSpaceOnUse">
<stop stop-color="#FF9508"/>
<stop offset="0.43" stop-color="#C25808"/>
<stop offset="1" stop-color="#4C1E0A"/>
</linearGradient>
<linearGradient id="paint17_linear_948_82" x1="274.01" y1="379.719" x2="265.774" y2="520.519" gradientUnits="userSpaceOnUse">
<stop stop-color="#FF9508"/>
<stop offset="0.43" stop-color="#C25808"/>
<stop offset="1" stop-color="#4C1E0A"/>
</linearGradient>
</defs>
</svg>
