<svg width="1404" height="588" viewBox="0 0 1404 588" fill="none" xmlns="http://www.w3.org/2000/svg">
<path d="M77.2714 261.32C77.2714 261.32 77.3335 261.362 77.4369 261.362C75.7607 262.065 74.7674 262.479 74.457 262.603L77.2714 261.32Z" fill="url(#paint0_linear_948_80)"/>
<path d="M486.392 293.843C486.392 400.184 400.185 486.391 293.844 486.391C187.503 486.391 101.296 400.184 101.296 293.843C101.296 187.502 187.503 101.295 293.844 101.295C400.185 101.295 486.392 187.502 486.392 293.843Z" stroke="white" stroke-width="70.1566"/>
<mask id="mask0_948_80" style="mask-type:luminance" maskUnits="userSpaceOnUse" x="86" y="86" width="416" height="416">
<path d="M441 441.002C522.186 359.816 522.186 228.188 441 147.002C359.814 65.8161 228.186 65.8161 147 147.002C65.8141 228.188 65.8141 359.816 147 441.002C228.186 522.188 359.814 522.188 441 441.002Z" fill="white"/>
</mask>
<g mask="url(#mask0_948_80)">
<path d="M441.312 441.314C522.67 359.956 522.67 228.048 441.312 146.69C359.954 65.3316 228.046 65.3316 146.688 146.69C65.3296 228.048 65.3296 359.956 146.688 441.314C228.046 522.672 359.954 522.672 441.312 441.314Z" fill="url(#paint1_linear_948_80)" stroke="black" stroke-width="0.882883"/>
<path style="mix-blend-mode:multiply" d="M469.938 124.686L309.127 135.322L489.556 138.261" fill="url(#paint2_linear_948_80)"/>
<path style="mix-blend-mode:multiply" d="M118.229 109.004L279.04 119.64L98.6113 122.579" fill="url(#paint3_linear_948_80)"/>
<path style="mix-blend-mode:multiply" d="M37.812 166.531L198.623 177.168L18.1943 180.106" fill="url(#paint4_linear_948_80)"/>
<path style="mix-blend-mode:multiply" d="M590.127 264.061L369.263 272.11L609.041 273.952" fill="url(#paint5_linear_948_80)"/>
<path style="mix-blend-mode:multiply" d="M35.7811 217.645L256.645 225.694L16.8877 227.536" fill="url(#paint6_linear_948_80)"/>
<path style="mix-blend-mode:multiply" d="M619.551 171.891L398.687 179.92L638.444 181.782" fill="url(#paint7_linear_948_80)"/>
<path d="M417.003 391.101C417.003 391.101 129.981 527.659 119.572 529.997C109.142 532.315 -115.385 365.648 -115.385 365.648C-115.385 365.648 24.8153 274.554 90.0213 263.669C92.6288 263.213 95.1327 262.903 97.4504 262.758C99.5405 262.593 101.506 262.551 103.348 262.613C137.948 264.041 246.507 309.774 326.282 346.278C330.69 348.285 335.035 350.272 339.236 352.259C383.79 372.932 416.589 389.425 417.003 391.08V391.101Z" fill="url(#paint8_linear_948_80)"/>
<path d="M339.237 352.278C327.317 368.461 318.357 380.753 317.922 381.663C316.536 384.519 93.5193 370.592 131.389 360.576C169.279 350.581 170.314 325.914 148.896 318.796C127.457 311.615 139.625 302.323 134.617 285.913C131.658 276.332 112.847 268.055 97.4512 262.778C99.5412 262.612 101.507 262.571 103.349 262.633C137.949 264.061 246.508 309.794 326.283 346.298C330.69 348.305 335.036 350.292 339.237 352.278Z" fill="url(#paint9_linear_948_80)"/>
<path d="M561.383 333.241C561.383 333.241 557.43 355.052 552.526 381.664C544.993 422.741 535.122 475.221 533.943 476.421C531.956 478.366 295.302 565.984 288.784 562.072C282.224 558.141 114.232 479.028 113.57 475.097C112.908 471.165 90.6826 362.668 90.6826 362.668C90.6826 362.668 155.413 339.78 216.211 337.173C277.03 334.524 300.579 310.354 337.187 291.398C339.753 290.074 343.022 289.143 346.954 288.522C399.082 280.638 561.424 333.262 561.424 333.262L561.383 333.241Z" fill="url(#paint10_linear_948_80)"/>
<path d="M561.384 333.24C561.384 333.24 557.431 355.051 552.527 381.664C523.08 375.869 495.805 385.492 472.96 383.857C439.767 381.436 438.96 361.342 409.223 345.822C379.486 330.302 337.478 356.666 331.042 333.344C323.427 305.738 394.22 309.649 394.489 298.682C394.634 293.467 386.708 299.758 371.188 296.012C358.834 293.032 350.391 290.032 346.914 288.5C399.042 280.616 561.384 333.24 561.384 333.24Z" fill="url(#paint11_linear_948_80)"/>
<g style="mix-blend-mode:screen">
<path d="M227.553 290.347C281.966 290.347 326.076 246.236 326.076 191.824C326.076 137.411 281.966 93.3008 227.553 93.3008C173.14 93.3008 129.03 137.411 129.03 191.824C129.03 246.236 173.14 290.347 227.553 290.347Z" fill="#6B4535"/>
</g>
<g style="mix-blend-mode:screen">
<path d="M304.811 204.38C311.735 161.726 282.77 121.535 240.116 114.611C197.462 107.687 157.271 136.653 150.347 179.307C143.423 221.961 172.389 262.152 215.043 269.076C257.697 275.999 297.888 247.034 304.811 204.38Z" fill="#6B4535"/>
</g>
<path style="mix-blend-mode:screen" d="M227.55 251.606C260.568 251.606 287.334 224.839 287.334 191.821C287.334 158.803 260.568 132.037 227.55 132.037C194.532 132.037 167.766 158.803 167.766 191.821C167.766 224.839 194.532 251.606 227.55 251.606Z" fill="url(#paint12_linear_948_80)"/>
<path d="M406.962 416.841H390.49L392.891 257.334H404.583L406.962 416.841Z" fill="url(#paint13_linear_948_80)"/>
<path d="M479.826 259.693C478.522 258.368 477.032 256.796 475.149 255.533C471.466 252.905 467.037 249.594 461.677 247.442C456.401 245.104 450.399 243.655 444.398 242.62C438.356 241.896 432.272 241.586 426.643 242.186C422.442 242.496 418.51 243.448 414.992 244.359C418.179 243.034 421.697 241.751 425.236 240.282C430.43 238.316 435.831 236.102 441.398 234.446C446.881 232.501 452.49 231.115 457.828 229.728C463.167 228.528 468.258 226.997 472.79 226.438C477.281 225.9 481.212 224.762 483.965 224.534C486.8 224.017 488.414 223.706 488.414 223.706C488.414 223.706 486.945 222.941 484.358 221.596C481.709 220.623 477.86 218.719 472.976 217.912C468.113 217.126 462.257 216.091 455.987 216.505C449.696 216.712 443.095 218.119 436.679 220.043C430.368 222.278 424.263 225.051 419.069 228.487C414.289 231.487 410.419 235.171 407.067 238.316C408.867 235.626 411.247 232.811 413.254 229.687C415.882 226.127 418.262 222.154 421.097 218.533C421.739 217.581 422.359 216.608 422.98 215.656C423.663 214.746 424.346 213.835 425.008 212.925C425.691 212.014 426.291 211.062 426.974 210.193C427.657 209.324 428.319 208.434 428.94 207.544C429.623 206.696 430.182 205.744 430.823 204.916C431.465 204.089 432.065 203.24 432.644 202.392C433.224 201.543 433.803 200.715 434.362 199.908C434.962 199.143 435.583 198.439 436.183 197.777C437.383 196.453 438.335 194.983 439.245 193.721C440.177 192.5 441.004 191.383 441.749 190.555C443.095 188.61 443.86 187.492 443.86 187.492C443.86 187.492 442.515 187.699 440.177 188.03C439.08 188.361 437.652 188.63 436.017 189.024C434.424 189.458 432.706 190.141 430.927 191.052C430.037 191.507 429.085 191.962 428.112 192.459C427.181 192.997 426.208 193.555 425.215 194.135C424.222 194.714 423.187 195.335 422.173 196.018C421.138 196.68 420.228 197.508 419.276 198.315C418.303 199.122 417.331 199.95 416.379 200.819C415.406 201.688 414.579 202.681 413.689 203.654C412.82 204.647 411.95 205.641 411.061 206.655C410.254 207.71 409.446 208.786 408.639 209.841C405.639 214.27 403.114 218.967 401.355 223.623C400.031 227.1 399.286 230.577 398.706 233.722C398.127 230.577 397.382 227.1 396.058 223.623C394.299 218.967 391.774 214.27 388.773 209.841C387.966 208.786 387.159 207.71 386.352 206.655C385.462 205.661 384.593 204.647 383.724 203.654C382.834 202.681 381.986 201.688 381.034 200.819C380.082 199.95 379.109 199.101 378.137 198.315C377.185 197.508 376.274 196.68 375.24 196.018C374.205 195.356 373.191 194.735 372.198 194.135C371.204 193.555 370.232 192.997 369.301 192.459C368.328 191.983 367.397 191.507 366.486 191.052C364.707 190.141 362.989 189.458 361.396 189.024C359.761 188.63 358.333 188.361 357.236 188.03C354.898 187.678 353.553 187.492 353.553 187.492C353.553 187.492 354.318 188.61 355.663 190.555C356.408 191.383 357.215 192.5 358.167 193.721C359.078 194.983 360.009 196.473 361.23 197.777C361.83 198.439 362.451 199.143 363.051 199.908C363.61 200.715 364.169 201.543 364.769 202.392C365.348 203.24 365.969 204.089 366.59 204.916C367.231 205.744 367.79 206.696 368.473 207.544C369.094 208.434 369.756 209.324 370.439 210.193C371.122 211.062 371.722 212.035 372.405 212.925C373.088 213.835 373.75 214.746 374.433 215.656C375.053 216.608 375.695 217.581 376.316 218.533C379.151 222.175 381.531 226.127 384.159 229.687C386.166 232.811 388.546 235.626 390.346 238.316C387.014 235.15 383.145 231.466 378.344 228.487C373.129 225.072 367.024 222.278 360.733 220.043C354.318 218.119 347.717 216.732 341.426 216.505C335.156 216.091 329.3 217.126 324.437 217.912C319.553 218.719 315.704 220.623 313.055 221.596C310.468 222.941 308.999 223.706 308.999 223.706C308.999 223.706 310.613 224.017 313.448 224.534C316.221 224.782 320.153 225.9 324.623 226.438C329.134 226.997 334.245 228.528 339.584 229.728C344.903 231.115 350.531 232.501 356.015 234.446C361.582 236.102 366.983 238.316 372.177 240.282C375.716 241.751 379.234 243.034 382.42 244.359C378.903 243.448 374.971 242.517 370.77 242.186C365.141 241.586 359.057 241.896 353.015 242.62C347.013 243.655 341.033 245.104 335.735 247.442C330.376 249.594 325.947 252.884 322.264 255.533C320.381 256.796 318.891 258.368 317.587 259.693C316.345 261.121 315.311 262.383 314.421 263.335C312.91 265.57 312.041 266.832 312.041 266.832C312.041 266.832 313.51 266.46 316.076 265.777C317.256 265.342 318.829 265.011 320.505 264.576C322.264 264.225 324.105 263.707 326.113 263.128C330.045 261.866 334.866 261.224 339.75 260.189C344.696 259.3 349.89 258.244 355.208 257.623C360.464 256.692 365.824 256.175 370.915 255.492C371.784 255.388 372.653 255.285 373.522 255.161C373.46 255.181 373.419 255.202 373.357 255.244C371.473 256.092 369.735 257.272 367.955 258.368C366.279 259.631 364.769 261.079 363.237 262.445C361.809 263.914 360.526 265.466 359.388 267.039C358.271 268.612 357.422 270.329 356.657 271.923C355.87 273.516 355.456 275.192 354.856 276.558C353.635 279.31 353.863 282.228 353.553 283.925C353.573 285.788 353.594 286.843 353.594 286.843C353.594 286.843 354.525 286.305 356.139 285.374C357.484 284.318 359.761 283.077 361.872 281.421C362.927 280.593 364.003 279.641 365.327 278.876C366.631 278.089 367.914 277.2 369.094 276.227C370.439 275.399 371.66 274.427 372.901 273.433C374.226 272.564 375.447 271.53 376.812 270.702C378.095 269.771 379.316 268.736 380.661 267.908C381.324 267.474 381.944 267.018 382.586 266.542C383.248 266.128 383.869 265.694 384.49 265.218C385.731 264.307 386.994 263.5 388.153 262.507C389.353 261.679 390.512 260.727 391.671 260.148C392.643 259.589 393.533 258.948 394.381 258.327H403.052C403.88 258.948 404.79 259.569 405.763 260.148C406.922 260.727 408.06 261.679 409.281 262.507C410.44 263.5 411.702 264.307 412.944 265.218C413.565 265.673 414.206 266.128 414.848 266.542C415.468 266.998 416.11 267.474 416.772 267.908C418.117 268.736 419.338 269.771 420.621 270.702C421.987 271.53 423.187 272.564 424.512 273.433C425.753 274.406 426.974 275.399 428.319 276.227C429.499 277.2 430.782 278.089 432.085 278.876C433.41 279.662 434.507 280.593 435.541 281.421C437.652 283.077 439.928 284.298 441.273 285.374C442.908 286.305 443.819 286.843 443.819 286.843C443.819 286.843 443.819 285.788 443.86 283.925C443.55 282.228 443.777 279.31 442.556 276.558C441.956 275.192 441.543 273.516 440.756 271.923C439.99 270.329 439.163 268.612 438.025 267.039C436.886 265.487 435.603 263.914 434.175 262.445C432.644 261.079 431.134 259.631 429.457 258.368C427.657 257.272 425.939 256.092 424.056 255.244C423.994 255.223 423.953 255.202 423.891 255.161C424.76 255.285 425.608 255.388 426.498 255.492C431.589 256.175 436.928 256.671 442.205 257.623C447.523 258.244 452.717 259.3 457.663 260.189C462.547 261.245 467.348 261.866 471.3 263.128C473.287 263.687 475.149 264.225 476.908 264.576C478.605 265.032 480.157 265.342 481.337 265.777C483.903 266.439 485.372 266.832 485.372 266.832C485.372 266.832 484.503 265.549 482.992 263.335C482.102 262.362 481.068 261.121 479.826 259.693Z" fill="url(#paint14_linear_948_80)"/>
<path d="M92.0925 370.654C95.4449 370.902 97.5763 373.075 100.411 374.316C104.053 375.889 108.275 376.634 112.145 377.421C120.215 379.055 128.451 379.8 136.667 380.007C162.803 380.669 188.587 374.896 214.724 375.889C235.335 376.676 255.283 384.539 275.067 389.547C296.733 395.052 318.917 398.735 341.328 398.797C384.164 398.942 426.234 388.099 468.76 398.383C491.544 403.888 512.196 424.395 502.739 448.98C492.31 473.295 461.062 462.865 437.264 470.315C433.457 471.743 429.794 473.75 426.317 476.606C421.64 478.696 417.295 481.22 413.529 484.324C409.141 487.118 404.713 489.767 400.243 492.312C395.773 494.816 391.241 497.196 386.668 499.472C312.978 535.914 226.643 539.287 145.482 526.209C122.926 522.567 98.3213 516.317 85.3877 497.486C78.0001 486.746 75.5996 473.481 73.3647 460.651C72.7232 456.967 72.0816 453.284 71.4401 449.621C65.1492 424.644 47.7872 382.966 82.4285 372.413C85.8016 371.13 89.0505 370.426 92.0718 370.654H92.0925Z" fill="url(#paint15_linear_948_80)"/>
<path d="M117.438 431.223C130.454 427.126 148.003 429.113 161.33 429.113C186.431 429.113 210.746 422.18 235.103 417.152C260.929 411.813 287.623 411.916 313.718 415.062C365.846 421.373 417.518 436.976 465.61 457.753C479.786 463.878 533.548 485.441 513.475 509.197C501.39 523.476 476.64 528.443 459.547 532.623C429.707 539.928 399.08 544.149 368.577 547.626C336.171 551.33 303.661 553.937 271.11 555.883C232.93 558.18 195.578 565.898 161.847 541.976C150.051 533.616 139.353 522.586 129.751 511.805C115.99 496.347 98.5033 477.702 99.538 455.125C100.179 441.115 107.484 434.348 117.479 431.203L117.438 431.223Z" fill="url(#paint16_linear_948_80)"/>
<path d="M119.966 442.152C121.539 439.793 124.498 437.91 129.361 436.896C134.265 435.882 139.335 436.565 144.302 437.165C158.684 438.903 173.149 439.938 187.635 440.269C201.21 440.579 215.757 438.344 229.105 439.979C255.241 443.166 279.267 457.445 302.485 468.806C319.061 476.917 335.533 485.216 351.881 493.741C365.787 500.984 386.232 507.627 395.607 520.354C406.471 535.108 425.675 569.046 406.305 584.463C393.061 594.996 369.967 592.285 354.509 590.733C304.12 585.663 253.875 570.019 206.487 552.719C203.527 551.643 170.852 541.461 171.452 537.24C172.031 533.122 166.775 526.293 164.934 522.961C159.595 513.276 153.821 503.819 148.027 494.383C142.046 484.636 136.5 473.213 128.45 465.267C122.015 458.914 115.703 448.67 119.987 442.173L119.966 442.152Z" fill="url(#paint17_linear_948_80)"/>
</g>
<path d="M234.132 420.372C232.79 420.372 231.574 420.246 230.484 419.995C229.394 419.743 228.451 419.366 227.655 418.863C226.858 418.339 226.229 417.678 225.768 416.882C225.307 416.085 225.035 415.163 224.951 414.115L229.384 412.637C229.447 413.518 229.698 414.251 230.139 414.838C230.579 415.425 231.166 415.865 231.899 416.159C232.654 416.431 233.492 416.567 234.414 416.567C235.295 416.567 236.028 416.463 236.615 416.253C237.223 416.022 237.674 415.74 237.967 415.404C238.282 415.048 238.439 414.671 238.439 414.272C238.439 413.811 238.24 413.434 237.842 413.14C237.443 412.826 236.898 412.564 236.207 412.354C235.515 412.124 234.708 411.904 233.786 411.694C232.738 411.443 231.711 411.17 230.704 410.877C229.698 410.583 228.787 410.206 227.969 409.745C227.152 409.263 226.502 408.655 226.02 407.921C225.559 407.167 225.328 406.223 225.328 405.092C225.328 403.813 225.653 402.702 226.303 401.759C226.953 400.816 227.906 400.082 229.164 399.558C230.422 399.013 231.973 398.741 233.817 398.741C235.641 398.741 237.192 399.003 238.47 399.527C239.749 400.051 240.734 400.784 241.426 401.727C242.118 402.65 242.495 403.729 242.558 404.966L238.03 406.255C238.03 405.647 237.925 405.113 237.716 404.651C237.527 404.19 237.255 403.813 236.898 403.52C236.542 403.205 236.102 402.975 235.578 402.828C235.054 402.66 234.456 402.576 233.786 402.576C232.989 402.576 232.308 402.671 231.742 402.859C231.197 403.048 230.788 403.299 230.516 403.614C230.243 403.907 230.107 404.253 230.107 404.651C230.107 405.154 230.317 405.574 230.736 405.909C231.176 406.223 231.763 406.496 232.497 406.726C233.251 406.936 234.079 407.146 234.98 407.355C235.882 407.544 236.814 407.785 237.779 408.078C238.743 408.351 239.644 408.718 240.483 409.179C241.321 409.64 241.992 410.269 242.495 411.065C243.019 411.841 243.281 412.826 243.281 414.021C243.281 415.299 242.935 416.421 242.243 417.385C241.573 418.328 240.556 419.062 239.194 419.586C237.831 420.11 236.144 420.372 234.132 420.372ZM248.695 420.372C247.773 420.372 246.955 420.194 246.243 419.837C245.53 419.46 244.975 418.926 244.576 418.234C244.178 417.521 243.979 416.662 243.979 415.656C243.979 414.712 244.157 413.937 244.513 413.329C244.891 412.7 245.425 412.208 246.117 411.851C246.83 411.474 247.678 411.17 248.664 410.94C249.649 410.688 250.77 410.468 252.028 410.279C252.636 410.174 253.139 410.08 253.537 409.996C253.956 409.892 254.271 409.734 254.48 409.525C254.69 409.315 254.795 409.011 254.795 408.613C254.795 408.089 254.606 407.638 254.229 407.261C253.851 406.884 253.243 406.695 252.405 406.695C251.818 406.695 251.284 406.8 250.802 407.009C250.34 407.219 249.942 407.523 249.607 407.921C249.271 408.319 249.02 408.802 248.852 409.368L244.388 408.047C244.66 407.167 245.037 406.402 245.519 405.752C246.023 405.102 246.62 404.568 247.312 404.148C248.003 403.708 248.789 403.394 249.67 403.205C250.571 402.996 251.525 402.891 252.531 402.891C254.208 402.891 255.57 403.163 256.618 403.708C257.687 404.232 258.473 405.06 258.976 406.192C259.5 407.303 259.762 408.739 259.762 410.499V413.046C259.762 413.801 259.773 414.566 259.794 415.341C259.836 416.096 259.877 416.861 259.919 417.636C259.982 418.391 260.056 419.156 260.139 419.932H255.675C255.591 419.45 255.507 418.873 255.423 418.202C255.34 417.511 255.277 416.809 255.235 416.096H254.637C254.344 416.892 253.914 417.626 253.348 418.297C252.803 418.946 252.133 419.46 251.336 419.837C250.561 420.194 249.68 420.372 248.695 420.372ZM250.99 416.788C251.367 416.788 251.745 416.725 252.122 416.599C252.52 416.452 252.898 416.264 253.254 416.033C253.61 415.781 253.935 415.478 254.229 415.121C254.522 414.765 254.742 414.377 254.889 413.958L254.826 411.474L255.518 411.631C255.119 411.883 254.679 412.082 254.197 412.229C253.715 412.375 253.223 412.491 252.719 412.574C252.237 412.658 251.755 412.753 251.273 412.857C250.812 412.941 250.393 413.057 250.016 413.203C249.659 413.35 249.376 413.549 249.167 413.801C248.957 414.052 248.852 414.398 248.852 414.838C248.852 415.425 249.051 415.897 249.45 416.253C249.848 416.609 250.361 416.788 250.99 416.788ZM261.923 419.932V409.368V397.294H266.985V402.482C266.985 402.901 266.964 403.341 266.922 403.802C266.901 404.243 266.849 404.704 266.765 405.186C266.702 405.647 266.629 406.119 266.545 406.601C266.482 407.083 266.398 407.554 266.293 408.016H267.048C267.341 406.988 267.708 406.098 268.148 405.343C268.588 404.568 269.165 403.97 269.878 403.551C270.59 403.111 271.502 402.891 272.613 402.891C274.583 402.891 276.05 403.582 277.015 404.966C278 406.328 278.492 408.435 278.492 411.285V419.932H273.399V412.134C273.399 410.437 273.147 409.168 272.644 408.33C272.162 407.471 271.418 407.041 270.412 407.041C269.637 407.041 268.997 407.282 268.494 407.764C267.991 408.246 267.614 408.896 267.362 409.713C267.111 410.51 266.985 411.401 266.985 412.386V419.932H261.923ZM284.453 420.372C283.531 420.372 282.713 420.194 282 419.837C281.288 419.46 280.732 418.926 280.334 418.234C279.936 417.521 279.737 416.662 279.737 415.656C279.737 414.712 279.915 413.937 280.271 413.329C280.648 412.7 281.183 412.208 281.875 411.851C282.587 411.474 283.436 411.17 284.421 410.94C285.407 410.688 286.528 410.468 287.786 410.279C288.393 410.174 288.896 410.08 289.295 409.996C289.714 409.892 290.028 409.734 290.238 409.525C290.448 409.315 290.552 409.011 290.552 408.613C290.552 408.089 290.364 407.638 289.986 407.261C289.609 406.884 289.001 406.695 288.163 406.695C287.576 406.695 287.041 406.8 286.559 407.009C286.098 407.219 285.7 407.523 285.365 407.921C285.029 408.319 284.778 408.802 284.61 409.368L280.145 408.047C280.418 407.167 280.795 406.402 281.277 405.752C281.78 405.102 282.378 404.568 283.069 404.148C283.761 403.708 284.547 403.394 285.428 403.205C286.329 402.996 287.283 402.891 288.289 402.891C289.965 402.891 291.328 403.163 292.376 403.708C293.445 404.232 294.231 405.06 294.734 406.192C295.258 407.303 295.52 408.739 295.52 410.499V413.046C295.52 413.801 295.53 414.566 295.551 415.341C295.593 416.096 295.635 416.861 295.677 417.636C295.74 418.391 295.813 419.156 295.897 419.932H291.433C291.349 419.45 291.265 418.873 291.181 418.202C291.097 417.511 291.034 416.809 290.993 416.096H290.395C290.102 416.892 289.672 417.626 289.106 418.297C288.561 418.946 287.89 419.46 287.094 419.837C286.318 420.194 285.438 420.372 284.453 420.372ZM286.748 416.788C287.125 416.788 287.503 416.725 287.88 416.599C288.278 416.452 288.655 416.264 289.012 416.033C289.368 415.781 289.693 415.478 289.986 415.121C290.28 414.765 290.5 414.377 290.647 413.958L290.584 411.474L291.276 411.631C290.877 411.883 290.437 412.082 289.955 412.229C289.473 412.375 288.98 412.491 288.477 412.574C287.995 412.658 287.513 412.753 287.031 412.857C286.57 412.941 286.151 413.057 285.773 413.203C285.417 413.35 285.134 413.549 284.924 413.801C284.715 414.052 284.61 414.398 284.61 414.838C284.61 415.425 284.809 415.897 285.207 416.253C285.606 416.609 286.119 416.788 286.748 416.788ZM297.681 419.932V412.229V403.331H301.831L301.925 408.959H302.554C302.701 407.492 302.973 406.328 303.372 405.469C303.791 404.589 304.378 403.949 305.132 403.551C305.908 403.153 306.862 402.954 307.993 402.954C308.161 402.954 308.35 402.964 308.559 402.985C308.769 402.985 309.01 403.006 309.283 403.048L309.094 408.456C308.758 408.288 308.392 408.183 307.993 408.141C307.616 408.078 307.281 408.047 306.987 408.047C306.17 408.047 305.457 408.204 304.849 408.519C304.262 408.833 303.791 409.315 303.435 409.965C303.099 410.615 302.879 411.432 302.774 412.417V419.932H297.681ZM313.794 420.372C312.871 420.372 312.054 420.194 311.341 419.837C310.628 419.46 310.073 418.926 309.675 418.234C309.277 417.521 309.077 416.662 309.077 415.656C309.077 414.712 309.256 413.937 309.612 413.329C309.989 412.7 310.524 412.208 311.215 411.851C311.928 411.474 312.777 411.17 313.762 410.94C314.747 410.688 315.869 410.468 317.126 410.279C317.734 410.174 318.237 410.08 318.635 409.996C319.055 409.892 319.369 409.734 319.579 409.525C319.788 409.315 319.893 409.011 319.893 408.613C319.893 408.089 319.704 407.638 319.327 407.261C318.95 406.884 318.342 406.695 317.504 406.695C316.917 406.695 316.382 406.8 315.9 407.009C315.439 407.219 315.041 407.523 314.705 407.921C314.37 408.319 314.118 408.802 313.951 409.368L309.486 408.047C309.759 407.167 310.136 406.402 310.618 405.752C311.121 405.102 311.718 404.568 312.41 404.148C313.102 403.708 313.888 403.394 314.768 403.205C315.67 402.996 316.623 402.891 317.629 402.891C319.306 402.891 320.669 403.163 321.717 403.708C322.786 404.232 323.572 405.06 324.075 406.192C324.599 407.303 324.861 408.739 324.861 410.499V413.046C324.861 413.801 324.871 414.566 324.892 415.341C324.934 416.096 324.976 416.861 325.018 417.636C325.081 418.391 325.154 419.156 325.238 419.932H320.773C320.69 419.45 320.606 418.873 320.522 418.202C320.438 417.511 320.375 416.809 320.333 416.096H319.736C319.442 416.892 319.013 417.626 318.447 418.297C317.902 418.946 317.231 419.46 316.435 419.837C315.659 420.194 314.779 420.372 313.794 420.372ZM316.089 416.788C316.466 416.788 316.843 416.725 317.221 416.599C317.619 416.452 317.996 416.264 318.352 416.033C318.709 415.781 319.034 415.478 319.327 415.121C319.621 414.765 319.841 414.377 319.987 413.958L319.924 411.474L320.616 411.631C320.218 411.883 319.778 412.082 319.296 412.229C318.814 412.375 318.321 412.491 317.818 412.574C317.336 412.658 316.854 412.753 316.372 412.857C315.911 412.941 315.491 413.057 315.114 413.203C314.758 413.35 314.475 413.549 314.265 413.801C314.056 414.052 313.951 414.398 313.951 414.838C313.951 415.425 314.15 415.897 314.548 416.253C314.946 416.609 315.46 416.788 316.089 416.788Z" fill="white"/>
<path d="M234.132 446.247C232.79 446.247 231.574 446.121 230.484 445.87C229.394 445.618 228.451 445.241 227.655 444.738C226.858 444.214 226.229 443.553 225.768 442.757C225.307 441.96 225.035 441.038 224.951 439.99L229.384 438.512C229.447 439.393 229.698 440.126 230.139 440.713C230.579 441.3 231.166 441.74 231.899 442.034C232.654 442.306 233.492 442.442 234.414 442.442C235.295 442.442 236.028 442.338 236.615 442.128C237.223 441.897 237.674 441.615 237.967 441.279C238.282 440.923 238.439 440.546 238.439 440.147C238.439 439.686 238.24 439.309 237.842 439.015C237.443 438.701 236.898 438.439 236.207 438.229C235.515 437.999 234.708 437.779 233.786 437.569C232.738 437.318 231.711 437.045 230.704 436.752C229.698 436.458 228.787 436.081 227.969 435.62C227.152 435.138 226.502 434.53 226.02 433.796C225.559 433.042 225.328 432.098 225.328 430.967C225.328 429.688 225.653 428.577 226.303 427.634C226.953 426.691 227.906 425.957 229.164 425.433C230.422 424.888 231.973 424.616 233.817 424.616C235.641 424.616 237.192 424.878 238.47 425.402C239.749 425.926 240.734 426.659 241.426 427.602C242.118 428.525 242.495 429.604 242.558 430.841L238.03 432.13C238.03 431.522 237.925 430.988 237.716 430.526C237.527 430.065 237.255 429.688 236.898 429.395C236.542 429.08 236.102 428.85 235.578 428.703C235.054 428.535 234.456 428.451 233.786 428.451C232.989 428.451 232.308 428.546 231.742 428.734C231.197 428.923 230.788 429.174 230.516 429.489C230.243 429.782 230.107 430.128 230.107 430.526C230.107 431.029 230.317 431.449 230.736 431.784C231.176 432.098 231.763 432.371 232.497 432.601C233.251 432.811 234.079 433.021 234.98 433.23C235.882 433.419 236.814 433.66 237.779 433.953C238.743 434.226 239.644 434.593 240.483 435.054C241.321 435.515 241.992 436.144 242.495 436.94C243.019 437.716 243.281 438.701 243.281 439.896C243.281 441.174 242.935 442.296 242.243 443.26C241.573 444.203 240.556 444.937 239.194 445.461C237.831 445.985 236.144 446.247 234.132 446.247ZM252.625 446.247C251.2 446.247 249.942 446.048 248.852 445.649C247.762 445.251 246.85 444.685 246.117 443.952C245.383 443.197 244.817 442.296 244.419 441.248C244.042 440.2 243.853 439.026 243.853 437.726C243.853 436.385 244.042 435.169 244.419 434.079C244.817 432.989 245.383 432.046 246.117 431.25C246.85 430.453 247.752 429.845 248.821 429.426C249.89 428.986 251.116 428.766 252.499 428.766C253.883 428.766 255.078 428.986 256.084 429.426C257.09 429.866 257.907 430.484 258.536 431.281C259.186 432.077 259.626 433 259.857 434.048L255.172 435.62C255.109 434.928 254.941 434.362 254.669 433.922C254.396 433.482 254.04 433.167 253.6 432.979C253.181 432.769 252.719 432.664 252.216 432.664C251.692 432.664 251.231 432.769 250.833 432.979C250.435 433.188 250.099 433.503 249.827 433.922C249.554 434.341 249.345 434.855 249.198 435.463C249.051 436.049 248.978 436.731 248.978 437.506C248.978 438.617 249.114 439.55 249.387 440.304C249.68 441.038 250.099 441.594 250.644 441.971C251.21 442.348 251.892 442.537 252.688 442.537C253.505 442.537 254.145 442.369 254.606 442.034C255.067 441.698 255.402 441.29 255.612 440.808C255.822 440.304 255.947 439.812 255.989 439.33L260.391 440.304C260.307 441.08 260.098 441.835 259.762 442.568C259.448 443.281 258.976 443.92 258.347 444.486C257.719 445.031 256.933 445.461 255.989 445.775C255.067 446.09 253.946 446.247 252.625 446.247ZM266.877 446.247C264.907 446.247 263.418 445.587 262.412 444.266C261.427 442.925 260.935 440.891 260.935 438.167V429.206H266.028V437.506C266.028 439.057 266.259 440.221 266.72 440.996C267.181 441.751 267.883 442.128 268.826 442.128C269.392 442.128 269.874 441.992 270.273 441.719C270.692 441.426 271.038 441.028 271.31 440.525C271.604 440.001 271.813 439.403 271.939 438.732C272.086 438.062 272.159 437.328 272.159 436.532V429.206H277.221V439.078V445.807H273.197L273.102 440.682H272.473C272.159 441.981 271.761 443.05 271.279 443.889C270.818 444.706 270.231 445.304 269.518 445.681C268.805 446.058 267.925 446.247 266.877 446.247ZM279.541 445.807V423.169H284.509V445.807H279.541ZM286.873 451.12V437.695V429.206H291.023L291.086 433.922L291.652 433.985C291.841 432.811 292.176 431.836 292.658 431.061C293.14 430.285 293.759 429.709 294.513 429.332C295.289 428.954 296.169 428.766 297.154 428.766C298.621 428.766 299.879 429.122 300.927 429.835C301.996 430.547 302.814 431.564 303.379 432.884C303.945 434.205 304.228 435.787 304.228 437.632C304.228 439.267 303.977 440.734 303.474 442.034C302.992 443.333 302.248 444.36 301.242 445.115C300.256 445.87 298.999 446.247 297.469 446.247C296.442 446.247 295.572 446.069 294.859 445.712C294.146 445.335 293.539 444.79 293.035 444.077C292.553 443.365 292.145 442.474 291.809 441.405H291.212C291.338 441.971 291.453 442.547 291.558 443.134C291.663 443.721 291.746 444.287 291.809 444.832C291.893 445.377 291.935 445.901 291.935 446.404V451.12H286.873ZM295.614 442.254C296.305 442.254 296.892 442.065 297.374 441.688C297.877 441.311 298.265 440.776 298.538 440.084C298.81 439.393 298.946 438.586 298.946 437.663C298.946 436.678 298.8 435.84 298.506 435.148C298.234 434.436 297.835 433.891 297.311 433.513C296.787 433.115 296.18 432.916 295.488 432.916C294.838 432.916 294.283 433.063 293.821 433.356C293.381 433.629 293.014 433.995 292.721 434.456C292.449 434.897 292.249 435.368 292.124 435.871C291.998 436.374 291.935 436.846 291.935 437.286V437.978C291.935 438.376 291.987 438.774 292.092 439.173C292.197 439.571 292.354 439.959 292.564 440.336C292.773 440.692 293.025 441.017 293.318 441.311C293.612 441.604 293.947 441.835 294.325 442.002C294.723 442.17 295.152 442.254 295.614 442.254ZM312.165 446.215C310.216 446.215 308.78 445.702 307.858 444.675C306.936 443.627 306.474 441.96 306.474 439.676V433.167H304.116L304.211 429.237H305.909C306.579 429.216 307.082 429.112 307.418 428.923C307.774 428.734 307.994 428.378 308.078 427.854L308.487 425.527H311.348V429.206H315.341V433.325H311.348V439.456C311.348 440.168 311.515 440.692 311.851 441.028C312.207 441.363 312.742 441.531 313.454 441.531C313.853 441.531 314.23 441.489 314.586 441.405C314.943 441.321 315.236 441.206 315.467 441.059V445.744C314.796 445.953 314.177 446.079 313.612 446.121C313.067 446.184 312.584 446.215 312.165 446.215ZM324.468 446.247C322.791 446.247 321.303 445.922 320.003 445.272C318.725 444.622 317.719 443.648 316.985 442.348C316.251 441.049 315.885 439.424 315.885 437.475C315.885 435.525 316.251 433.912 316.985 432.633C317.719 431.333 318.735 430.369 320.035 429.74C321.334 429.091 322.823 428.766 324.499 428.766C326.176 428.766 327.664 429.091 328.964 429.74C330.264 430.39 331.28 431.365 332.014 432.664C332.747 433.943 333.114 435.557 333.114 437.506C333.114 439.498 332.737 441.143 331.982 442.442C331.228 443.742 330.19 444.706 328.87 445.335C327.57 445.943 326.103 446.247 324.468 446.247ZM324.625 442.568C325.38 442.568 326.009 442.401 326.512 442.065C327.015 441.709 327.392 441.174 327.643 440.462C327.895 439.749 328.021 438.869 328.021 437.821C328.021 436.71 327.885 435.777 327.612 435.022C327.34 434.247 326.931 433.66 326.386 433.262C325.862 432.843 325.181 432.633 324.342 432.633C323.63 432.633 323.011 432.811 322.487 433.167C321.984 433.503 321.607 434.027 321.355 434.739C321.104 435.452 320.978 436.343 320.978 437.412C320.978 439.131 321.292 440.42 321.921 441.279C322.571 442.139 323.472 442.568 324.625 442.568ZM334.507 445.807V438.104V429.206H338.657L338.752 434.834H339.38C339.527 433.367 339.8 432.203 340.198 431.344C340.617 430.464 341.204 429.824 341.959 429.426C342.734 429.028 343.688 428.829 344.82 428.829C344.987 428.829 345.176 428.839 345.386 428.86C345.595 428.86 345.836 428.881 346.109 428.923L345.92 434.331C345.585 434.163 345.218 434.058 344.82 434.016C344.442 433.953 344.107 433.922 343.814 433.922C342.996 433.922 342.284 434.079 341.676 434.394C341.089 434.708 340.617 435.19 340.261 435.84C339.925 436.49 339.705 437.307 339.601 438.292V445.807H334.507ZM353.758 446.247C352.647 446.247 351.641 446.142 350.74 445.932C349.838 445.744 349.052 445.461 348.382 445.084C347.711 444.706 347.155 444.256 346.715 443.732C346.296 443.187 346.003 442.589 345.835 441.939L349.608 440.273C349.755 440.629 350.006 440.996 350.362 441.373C350.74 441.73 351.232 442.023 351.84 442.254C352.469 442.484 353.224 442.6 354.104 442.6C354.942 442.6 355.592 442.484 356.053 442.254C356.535 442.002 356.776 441.646 356.776 441.185C356.776 440.849 356.64 440.587 356.368 440.399C356.116 440.189 355.728 440.011 355.204 439.864C354.68 439.697 354.031 439.539 353.255 439.393C352.458 439.225 351.651 439.036 350.834 438.827C350.017 438.596 349.252 438.292 348.539 437.915C347.826 437.517 347.25 437.003 346.81 436.374C346.39 435.725 346.181 434.907 346.181 433.922C346.181 432.895 346.453 432.004 346.998 431.25C347.543 430.474 348.35 429.866 349.419 429.426C350.509 428.986 351.83 428.766 353.381 428.766C354.764 428.766 355.98 428.944 357.028 429.3C358.076 429.657 358.946 430.17 359.637 430.841C360.35 431.491 360.843 432.277 361.115 433.199L357.059 434.645C356.955 434.184 356.734 433.786 356.399 433.45C356.085 433.115 355.676 432.863 355.173 432.696C354.691 432.507 354.114 432.413 353.444 432.413C352.626 432.413 351.987 432.539 351.526 432.79C351.086 433.042 350.865 433.377 350.865 433.796C350.865 434.132 351.012 434.415 351.306 434.645C351.62 434.855 352.06 435.033 352.626 435.18C353.192 435.326 353.863 435.484 354.638 435.651C355.456 435.819 356.263 436.018 357.059 436.249C357.877 436.458 358.61 436.752 359.26 437.129C359.931 437.485 360.455 437.967 360.832 438.575C361.23 439.162 361.43 439.927 361.43 440.87C361.43 441.981 361.136 442.946 360.549 443.763C359.962 444.559 359.092 445.178 357.94 445.618C356.808 446.037 355.414 446.247 353.758 446.247Z" fill="white"/>
<path d="M590.27 281L652.704 180.254L589.419 82.3467H633.69L676.543 150.173H677.678L717.125 82.3467H760.545L698.394 181.957L762.247 281H717.976L674.84 212.039H673.705L633.69 281H590.27ZM759.733 281V140.24H798.045V281H759.733ZM779.031 122.361C772.031 122.361 766.26 120.375 761.72 116.402C757.368 112.239 755.192 107.037 755.192 100.793C755.192 94.5497 757.368 89.3469 761.72 85.1846C766.26 81.0224 772.031 78.9413 779.031 78.9413C786.031 78.9413 791.707 81.0224 796.058 85.1846C800.41 89.3469 802.585 94.5497 802.585 100.793C802.585 106.847 800.41 111.956 796.058 116.118C791.707 120.28 786.031 122.361 779.031 122.361ZM806.862 281V82.3467H844.606V163.795H845.742C850.661 155.092 857.093 148.47 865.039 143.929C872.985 139.199 882.35 136.835 893.134 136.835C904.486 136.835 914.135 139.389 922.081 144.497C930.027 149.416 936.081 156.7 940.244 166.349C944.406 175.998 946.487 187.917 946.487 202.106V281H908.459V205.512C908.459 193.782 906.094 184.795 901.364 178.552C896.824 172.308 889.445 169.187 879.229 169.187C872.607 169.187 866.742 170.795 861.634 174.011C856.526 177.038 852.458 181.484 849.431 187.349C846.593 193.025 845.174 200.025 845.174 208.35V281H806.862ZM949.4 281V82.3467H987.712V281H949.4ZM1045.21 284.405C1033.67 284.405 1023.83 281.946 1015.7 277.027C1007.56 272.108 1001.32 264.824 996.966 255.175C992.615 245.337 990.439 233.323 990.439 219.134V140.24H1028.47V215.728C1028.47 227.458 1030.83 236.445 1035.56 242.688C1040.48 248.932 1048.05 252.053 1058.26 252.053C1064.89 252.053 1070.66 250.54 1075.58 247.513C1080.68 244.296 1084.66 239.756 1087.5 233.891C1090.33 228.026 1091.75 221.026 1091.75 212.89V140.24H1130.06V281H1097.43L1094.02 258.581H1092.89C1088.54 266.527 1082.39 272.865 1074.44 277.595C1066.68 282.135 1056.94 284.405 1045.21 284.405ZM1228.65 281L1167.07 203.525L1221.27 140.24H1266.68L1196.58 219.417L1196.3 189.052L1276.04 281H1228.65ZM1134.43 281V82.3467H1172.74V281H1134.43ZM1326.23 284.405C1311.85 284.405 1299.08 281.378 1287.91 275.324C1276.94 269.27 1268.33 260.756 1262.09 249.783C1255.85 238.81 1252.72 226.228 1252.72 212.039C1252.72 197.282 1255.75 184.322 1261.8 173.16C1268.05 161.808 1276.66 152.916 1287.63 146.483C1298.79 140.051 1311.66 136.835 1326.23 136.835C1340.41 136.835 1352.81 139.862 1363.4 145.916C1374 151.97 1382.32 160.294 1388.38 170.889C1394.43 181.295 1397.46 193.12 1397.46 206.363C1397.46 208.255 1397.36 210.431 1397.17 212.89C1397.17 215.161 1397.08 217.526 1396.89 219.985H1279.97V196.43H1358.58C1358.01 187.538 1354.7 180.444 1348.64 175.146C1342.78 169.849 1335.4 167.2 1326.51 167.2C1319.89 167.2 1313.83 168.714 1308.35 171.741C1302.86 174.579 1298.51 179.025 1295.29 185.079C1292.08 190.944 1290.47 198.417 1290.47 207.498V215.728C1290.47 223.485 1291.98 230.202 1295.01 235.877C1298.04 241.364 1302.2 245.621 1307.49 248.648C1312.98 251.675 1319.13 253.189 1325.94 253.189C1332.94 253.189 1338.81 251.675 1343.54 248.648C1348.27 245.432 1351.86 241.364 1354.32 236.445H1393.2C1390.55 245.337 1386.1 253.472 1379.86 260.851C1373.62 268.04 1365.96 273.811 1356.87 278.162C1347.79 282.324 1337.58 284.405 1326.23 284.405Z" fill="white"/>
<path d="M670.299 497.249C655.92 497.249 643.055 494.79 631.704 489.871C620.541 484.952 611.744 477.762 605.311 468.303C598.879 458.843 595.473 447.397 595.095 433.964H635.677C635.866 439.829 637.285 445.126 639.934 449.856C642.772 454.586 646.745 458.37 651.853 461.208C656.961 463.857 663.11 465.181 670.299 465.181C676.164 465.181 681.367 464.33 685.908 462.627C690.448 460.735 693.948 458.086 696.408 454.681C699.057 451.086 700.381 446.64 700.381 441.343C700.381 435.667 698.962 430.937 696.124 427.153C693.475 423.369 689.692 420.153 684.773 417.504C679.853 414.666 674.272 412.207 668.029 410.126C661.975 407.855 655.637 405.585 649.015 403.315C632.933 397.828 620.636 390.733 612.122 382.03C603.798 373.327 599.635 361.881 599.635 347.692C599.635 336.151 602.473 326.218 608.149 317.894C613.825 309.569 621.771 303.137 631.988 298.596C642.204 294.055 653.839 291.785 666.894 291.785C680.326 291.785 692.151 294.15 702.368 298.88C712.584 303.42 720.625 310.042 726.49 318.745C732.355 327.448 735.476 337.664 735.855 349.394H694.705C694.516 344.286 693.192 339.84 690.732 336.056C688.462 332.272 685.151 329.245 680.799 326.975C676.637 324.705 671.718 323.57 666.042 323.57C661.123 323.38 656.583 324.137 652.42 325.84C648.447 327.353 645.326 329.718 643.055 332.935C640.785 335.962 639.65 340.029 639.65 345.138C639.65 349.867 640.69 353.841 642.772 357.057C645.042 360.273 648.164 363.111 652.137 365.571C656.299 367.841 661.123 370.111 666.61 372.381C672.286 374.463 678.624 376.733 685.624 379.192C695.651 382.598 704.827 386.666 713.152 391.395C721.476 395.936 728.098 401.896 733.017 409.274C738.125 416.653 740.679 426.207 740.679 437.937C740.679 448.532 737.936 458.37 732.449 467.451C727.152 476.343 719.3 483.533 708.895 489.019C698.489 494.506 685.624 497.249 670.299 497.249ZM743.936 493.844V353.084H782.248V493.844H743.936ZM763.234 335.205C756.234 335.205 750.463 333.218 745.923 329.245C741.571 325.083 739.395 319.88 739.395 313.637C739.395 307.393 741.571 302.191 745.923 298.028C750.463 293.866 756.234 291.785 763.234 291.785C770.234 291.785 775.91 293.866 780.261 298.028C784.613 302.191 786.788 307.393 786.788 313.637C786.788 319.691 784.613 324.799 780.261 328.962C775.91 333.124 770.234 335.205 763.234 335.205ZM885.284 493.844L823.701 416.369L877.905 353.084H923.312L853.215 432.261L852.932 401.896L932.677 493.844H885.284ZM791.065 493.844V295.19H829.377V493.844H791.065ZM982.861 497.249C968.482 497.249 955.712 494.222 944.549 488.168C933.576 482.114 924.968 473.6 918.724 462.627C912.481 451.654 909.359 439.072 909.359 424.883C909.359 410.126 912.386 397.166 918.441 386.003C924.684 374.652 933.292 365.76 944.266 359.327C955.428 352.895 968.293 349.678 982.861 349.678C997.051 349.678 1009.44 352.705 1020.04 358.76C1030.63 364.814 1038.96 373.138 1045.01 383.733C1051.07 394.139 1054.09 405.963 1054.09 419.207C1054.09 421.099 1054 423.275 1053.81 425.734C1053.81 428.004 1053.71 430.369 1053.52 432.829H936.603V409.274H1015.21C1014.65 400.382 1011.33 393.287 1005.28 387.99C999.415 382.693 992.037 380.044 983.145 380.044C976.523 380.044 970.469 381.557 964.982 384.584C959.496 387.422 955.144 391.868 951.928 397.923C948.712 403.788 947.103 411.261 947.103 420.342V428.572C947.103 436.329 948.617 443.045 951.644 448.721C954.671 454.208 958.833 458.465 964.131 461.492C969.617 464.519 975.766 466.032 982.577 466.032C989.577 466.032 995.442 464.519 1000.17 461.492C1004.9 458.275 1008.5 454.208 1010.96 449.289H1049.84C1047.19 458.181 1042.74 466.316 1036.5 473.695C1030.25 480.884 1022.59 486.654 1013.51 491.006C1004.43 495.168 994.213 497.249 982.861 497.249ZM1052.58 550.602V353.084H1084.65L1086.92 377.773H1088.06C1091.65 371.908 1095.91 366.895 1100.83 362.733C1105.94 358.57 1111.71 355.354 1118.14 353.084C1124.76 350.813 1131.95 349.678 1139.71 349.678C1153.14 349.678 1164.78 352.895 1174.61 359.327C1184.45 365.571 1192.12 374.273 1197.6 385.436C1203.09 396.598 1205.83 409.274 1205.83 423.464C1205.83 437.653 1203.09 450.329 1197.6 461.492C1192.12 472.654 1184.36 481.452 1174.33 487.884C1164.3 494.128 1152.38 497.249 1138.57 497.249C1127.6 497.249 1118.05 495.168 1109.91 491.006C1101.96 486.654 1095.63 481.546 1090.9 475.681V550.602H1052.58ZM1128.64 466.032C1136.4 466.032 1143.11 464.235 1148.79 460.64C1154.65 457.046 1159.1 452.127 1162.13 445.883C1165.34 439.451 1166.95 432.072 1166.95 423.748C1166.95 415.234 1165.34 407.855 1162.13 401.612C1159.1 395.179 1154.65 390.166 1148.79 386.571C1143.11 382.976 1136.4 381.179 1128.64 381.179C1121.07 381.179 1114.36 382.976 1108.49 386.571C1102.63 390.166 1098.09 395.179 1094.87 401.612C1091.65 407.855 1090.05 415.234 1090.05 423.748C1090.05 432.072 1091.65 439.451 1094.87 445.883C1098.09 452.127 1102.63 457.046 1108.49 460.64C1114.36 464.235 1121.07 466.032 1128.64 466.032ZM1273.76 497.249C1259.38 497.249 1246.61 494.222 1235.45 488.168C1224.47 482.114 1215.86 473.6 1209.62 462.627C1203.38 451.654 1200.26 439.072 1200.26 424.883C1200.26 410.126 1203.28 397.166 1209.34 386.003C1215.58 374.652 1224.19 365.76 1235.16 359.327C1246.32 352.895 1259.19 349.678 1273.76 349.678C1287.95 349.678 1300.34 352.705 1310.93 358.76C1321.53 364.814 1329.85 373.138 1335.91 383.733C1341.96 394.139 1344.99 405.963 1344.99 419.207C1344.99 421.099 1344.89 423.275 1344.7 425.734C1344.7 428.004 1344.61 430.369 1344.42 432.829H1227.5V409.274H1306.11C1305.54 400.382 1302.23 393.287 1296.18 387.99C1290.31 382.693 1282.93 380.044 1274.04 380.044C1267.42 380.044 1261.37 381.557 1255.88 384.584C1250.39 387.422 1246.04 391.868 1242.82 397.923C1239.61 403.788 1238 411.261 1238 420.342V428.572C1238 436.329 1239.51 443.045 1242.54 448.721C1245.57 454.208 1249.73 458.465 1255.03 461.492C1260.51 464.519 1266.66 466.032 1273.47 466.032C1280.47 466.032 1286.34 464.519 1291.07 461.492C1295.8 458.275 1299.39 454.208 1301.85 449.289H1340.73C1338.08 458.181 1333.64 466.316 1327.39 473.695C1321.15 480.884 1313.49 486.654 1304.41 491.006C1295.33 495.168 1285.11 497.249 1273.76 497.249ZM1364.2 495.263C1357.2 495.263 1351.52 493.182 1347.17 489.019C1342.82 484.668 1340.64 479.465 1340.64 473.411C1340.64 467.167 1342.82 461.965 1347.17 457.802C1351.52 453.451 1357.2 451.275 1364.2 451.275C1371.01 451.275 1376.59 453.451 1380.94 457.802C1385.29 461.965 1387.47 467.167 1387.47 473.411C1387.47 479.465 1385.29 484.668 1380.94 489.019C1376.59 493.182 1371.01 495.263 1364.2 495.263Z" fill="white"/>
<defs>
<linearGradient id="paint0_linear_948_80" x1="75.947" y1="262.355" x2="75.947" y2="261.362" gradientUnits="userSpaceOnUse">
<stop stop-color="#FFD67F"/>
<stop offset="0.57" stop-color="#FFBF0B"/>
<stop offset="1" stop-color="#FF9A0B"/>
</linearGradient>
<linearGradient id="paint1_linear_948_80" x1="294.005" y1="327.502" x2="294.005" y2="133.643" gradientUnits="userSpaceOnUse">
<stop stop-color="#FFD67F"/>
<stop offset="0.57" stop-color="#FFBF0B"/>
<stop offset="1" stop-color="#FF9A0B"/>
</linearGradient>
<linearGradient id="paint2_linear_948_80" x1="309.127" y1="131.473" x2="489.556" y2="131.473" gradientUnits="userSpaceOnUse">
<stop stop-color="#FFD67F"/>
<stop offset="0.57" stop-color="#FFBF0B"/>
<stop offset="1" stop-color="#FF9A0B"/>
</linearGradient>
<linearGradient id="paint3_linear_948_80" x1="279.061" y1="115.791" x2="98.6113" y2="115.791" gradientUnits="userSpaceOnUse">
<stop stop-color="#FFD67F"/>
<stop offset="0.57" stop-color="#FFBF0B"/>
<stop offset="1" stop-color="#FF9A0B"/>
</linearGradient>
<linearGradient id="paint4_linear_948_80" x1="198.644" y1="173.319" x2="18.1943" y2="173.319" gradientUnits="userSpaceOnUse">
<stop stop-color="#FFD67F"/>
<stop offset="0.57" stop-color="#FFBF0B"/>
<stop offset="1" stop-color="#FF9A0B"/>
</linearGradient>
<linearGradient id="paint5_linear_948_80" x1="369.263" y1="269.006" x2="609.041" y2="269.006" gradientUnits="userSpaceOnUse">
<stop stop-color="#FFD67F"/>
<stop offset="0.57" stop-color="#FFBF0B"/>
<stop offset="1" stop-color="#FF9A0B"/>
</linearGradient>
<linearGradient id="paint6_linear_948_80" x1="256.666" y1="222.59" x2="16.8877" y2="222.59" gradientUnits="userSpaceOnUse">
<stop stop-color="#FFD67F"/>
<stop offset="0.57" stop-color="#FFBF0B"/>
<stop offset="1" stop-color="#FF9A0B"/>
</linearGradient>
<linearGradient id="paint7_linear_948_80" x1="398.687" y1="176.836" x2="638.444" y2="176.836" gradientUnits="userSpaceOnUse">
<stop stop-color="#FFD67F"/>
<stop offset="0.57" stop-color="#FFBF0B"/>
<stop offset="1" stop-color="#FF9A0B"/>
</linearGradient>
<linearGradient id="paint8_linear_948_80" x1="232.477" y1="287.26" x2="131.305" y2="400.123" gradientUnits="userSpaceOnUse">
<stop stop-color="#FF9508"/>
<stop offset="0.43" stop-color="#C25808"/>
<stop offset="1" stop-color="#4C1E0A"/>
</linearGradient>
<linearGradient id="paint9_linear_948_80" x1="219.13" y1="288.79" x2="215.695" y2="371.379" gradientUnits="userSpaceOnUse">
<stop stop-color="#FF9508"/>
<stop offset="0.43" stop-color="#C25808"/>
<stop offset="1" stop-color="#4C1E0A"/>
</linearGradient>
<linearGradient id="paint10_linear_948_80" x1="327.129" y1="313.665" x2="322.991" y2="442.338" gradientUnits="userSpaceOnUse">
<stop stop-color="#FF9508"/>
<stop offset="0.43" stop-color="#C25808"/>
<stop offset="1" stop-color="#4C1E0A"/>
</linearGradient>
<linearGradient id="paint11_linear_948_80" x1="371.333" y1="214.251" x2="522.045" y2="455.106" gradientUnits="userSpaceOnUse">
<stop stop-color="#FF9508"/>
<stop offset="0.43" stop-color="#C25808"/>
<stop offset="1" stop-color="#4C1E0A"/>
</linearGradient>
<linearGradient id="paint12_linear_948_80" x1="227.55" y1="138.142" x2="227.55" y2="230.457" gradientUnits="userSpaceOnUse">
<stop stop-color="white"/>
<stop offset="0.26" stop-color="#F6EEE0"/>
<stop offset="0.55" stop-color="#ECDABA"/>
<stop offset="0.68" stop-color="#EFCF9B"/>
<stop offset="0.97" stop-color="#F7B44F"/>
<stop offset="1" stop-color="#F8B248"/>
</linearGradient>
<linearGradient id="paint13_linear_948_80" x1="398.726" y1="420.877" x2="398.726" y2="286.326" gradientUnits="userSpaceOnUse">
<stop stop-color="#A64D0D"/>
<stop offset="0.49" stop-color="#88390A"/>
<stop offset="1" stop-color="#4C1E0A"/>
</linearGradient>
<linearGradient id="paint14_linear_948_80" x1="398.727" y1="420.876" x2="398.727" y2="286.326" gradientUnits="userSpaceOnUse">
<stop stop-color="#A64D0D"/>
<stop offset="0.49" stop-color="#88390A"/>
<stop offset="1" stop-color="#4C1E0A"/>
</linearGradient>
<linearGradient id="paint15_linear_948_80" x1="284.027" y1="391.554" x2="281.958" y2="472.074" gradientUnits="userSpaceOnUse">
<stop stop-color="#FF9508"/>
<stop offset="0.43" stop-color="#C25808"/>
<stop offset="1" stop-color="#4C1E0A"/>
</linearGradient>
<linearGradient id="paint16_linear_948_80" x1="315.457" y1="407.922" x2="303.351" y2="531.65" gradientUnits="userSpaceOnUse">
<stop stop-color="#FF9508"/>
<stop offset="0.43" stop-color="#C25808"/>
<stop offset="1" stop-color="#4C1E0A"/>
</linearGradient>
<linearGradient id="paint17_linear_948_80" x1="274.01" y1="379.719" x2="265.774" y2="520.519" gradientUnits="userSpaceOnUse">
<stop stop-color="#FF9508"/>
<stop offset="0.43" stop-color="#C25808"/>
<stop offset="1" stop-color="#4C1E0A"/>
</linearGradient>
</defs>
</svg>
